<mxfile host="65bd71144e">
    <diagram id="ll2yb5Os_k2lwndLwIDp" name="Page-1">
        <mxGraphModel dx="1060" dy="548" grid="1" gridSize="10" guides="1" tooltips="1" connect="1" arrows="1" fold="1" page="1" pageScale="1" pageWidth="850" pageHeight="1100" math="0" shadow="0">
            <root>
                <mxCell id="0"/>
                <mxCell id="1" parent="0"/>
                <mxCell id="11" value="&lt;font face=&quot;Times New Roman&quot; style=&quot;font-size: 24px;&quot;&gt;&lt;b&gt;MENU&lt;/b&gt;&lt;/font&gt;" style="rounded=1;whiteSpace=wrap;html=1;shadow=1;align=center;arcSize=24;fillColor=#d5e8d4;strokeColor=#82b366;" parent="1" vertex="1">
                    <mxGeometry x="10" y="290" width="120" height="60" as="geometry"/>
                </mxCell>
                <mxCell id="14" value="Quản Lý" style="rounded=1;whiteSpace=wrap;html=1;shadow=1;fontFamily=Times New Roman;fontSize=24;fillColor=#d5e8d4;strokeColor=#82b366;" parent="1" vertex="1">
                    <mxGeometry x="225" y="190" width="120" height="90" as="geometry"/>
                </mxCell>
                <mxCell id="LLOpAmpcGHF70vImFawK-37" style="edgeStyle=none;html=1;exitX=0.5;exitY=1;exitDx=0;exitDy=0;entryX=0.5;entryY=0;entryDx=0;entryDy=0;fontFamily=Times New Roman;fontSize=24;fontColor=#0000FF;rounded=1;" parent="1" source="15" target="LLOpAmpcGHF70vImFawK-32" edge="1">
                    <mxGeometry relative="1" as="geometry"/>
                </mxCell>
                <mxCell id="LLOpAmpcGHF70vImFawK-57" style="edgeStyle=none;html=1;exitX=1;exitY=0.5;exitDx=0;exitDy=0;entryX=0.5;entryY=0;entryDx=0;entryDy=0;fontFamily=Times New Roman;fontSize=24;fontColor=#0000FF;rounded=1;" parent="1" source="15" target="LLOpAmpcGHF70vImFawK-54" edge="1">
                    <mxGeometry relative="1" as="geometry">
                        <Array as="points">
                            <mxPoint x="780" y="445"/>
                        </Array>
                    </mxGeometry>
                </mxCell>
                <mxCell id="15" value="Nhân Viên" style="rounded=1;whiteSpace=wrap;html=1;shadow=1;fontFamily=Times New Roman;fontSize=24;fillColor=#d5e8d4;strokeColor=#82b366;" parent="1" vertex="1">
                    <mxGeometry x="195" y="400" width="130" height="90" as="geometry"/>
                </mxCell>
                <mxCell id="16" value="Thêm phim" style="rounded=1;whiteSpace=wrap;html=1;shadow=1;fontFamily=Times New Roman;fontSize=24;fillColor=#d5e8d4;strokeColor=#82b366;" parent="1" vertex="1">
                    <mxGeometry x="540" y="40" width="120" height="60" as="geometry"/>
                </mxCell>
                <mxCell id="LLOpAmpcGHF70vImFawK-18" value="" style="endArrow=classic;html=1;fontFamily=Times New Roman;fontSize=24;fontColor=#33FFFF;entryX=0;entryY=1;entryDx=0;entryDy=0;exitX=1;exitY=0.5;exitDx=0;exitDy=0;rounded=1;" parent="1" source="11" target="14" edge="1">
                    <mxGeometry width="50" height="50" relative="1" as="geometry">
                        <mxPoint x="110" y="290" as="sourcePoint"/>
                        <mxPoint x="160" y="240" as="targetPoint"/>
                    </mxGeometry>
                </mxCell>
                <mxCell id="LLOpAmpcGHF70vImFawK-19" value="Danh sách phim" style="rounded=1;whiteSpace=wrap;html=1;shadow=1;fontFamily=Times New Roman;fontSize=24;fillColor=#d5e8d4;strokeColor=#82b366;" parent="1" vertex="1">
                    <mxGeometry x="400" width="120" height="60" as="geometry"/>
                </mxCell>
                <mxCell id="LLOpAmpcGHF70vImFawK-20" value="Xóa phim" style="rounded=1;whiteSpace=wrap;html=1;shadow=1;fontFamily=Times New Roman;fontSize=24;fillColor=#d5e8d4;strokeColor=#82b366;" parent="1" vertex="1">
                    <mxGeometry x="540" y="110" width="120" height="60" as="geometry"/>
                </mxCell>
                <mxCell id="LLOpAmpcGHF70vImFawK-21" value="Danh sách khách hàng" style="rounded=1;whiteSpace=wrap;html=1;shadow=1;fontFamily=Times New Roman;fontSize=24;fillColor=#d5e8d4;strokeColor=#82b366;" parent="1" vertex="1">
                    <mxGeometry x="550" y="330" width="120" height="60" as="geometry"/>
                </mxCell>
                <mxCell id="LLOpAmpcGHF70vImFawK-22" value="Doanh thu" style="rounded=1;whiteSpace=wrap;html=1;shadow=1;fontFamily=Times New Roman;fontSize=24;fillColor=#d5e8d4;strokeColor=#82b366;" parent="1" vertex="1">
                    <mxGeometry x="550" y="260" width="120" height="60" as="geometry"/>
                </mxCell>
                <mxCell id="LLOpAmpcGHF70vImFawK-23" value="Sửa phim" style="rounded=1;whiteSpace=wrap;html=1;shadow=1;fontFamily=Times New Roman;fontSize=24;fillColor=#d5e8d4;strokeColor=#82b366;" parent="1" vertex="1">
                    <mxGeometry x="545" y="190" width="120" height="60" as="geometry"/>
                </mxCell>
                <mxCell id="LLOpAmpcGHF70vImFawK-24" value="" style="endArrow=classic;html=1;fontFamily=Times New Roman;fontSize=24;fontColor=#33FFFF;exitX=0.5;exitY=0;exitDx=0;exitDy=0;entryX=0.5;entryY=1;entryDx=0;entryDy=0;rounded=1;" parent="1" source="14" target="LLOpAmpcGHF70vImFawK-19" edge="1">
                    <mxGeometry width="50" height="50" relative="1" as="geometry">
                        <mxPoint x="470" y="270" as="sourcePoint"/>
                        <mxPoint x="520" y="220" as="targetPoint"/>
                        <Array as="points">
                            <mxPoint x="330" y="150"/>
                            <mxPoint x="440" y="70"/>
                        </Array>
                    </mxGeometry>
                </mxCell>
                <mxCell id="LLOpAmpcGHF70vImFawK-25" value="" style="endArrow=classic;html=1;fontFamily=Times New Roman;fontSize=24;fontColor=#33FFFF;exitX=0.75;exitY=0;exitDx=0;exitDy=0;entryX=0;entryY=1;entryDx=0;entryDy=0;rounded=1;" parent="1" source="14" target="16" edge="1">
                    <mxGeometry width="50" height="50" relative="1" as="geometry">
                        <mxPoint x="470" y="130" as="sourcePoint"/>
                        <mxPoint x="520" y="80" as="targetPoint"/>
                        <Array as="points">
                            <mxPoint x="370" y="170"/>
                            <mxPoint x="460" y="130"/>
                        </Array>
                    </mxGeometry>
                </mxCell>
                <mxCell id="LLOpAmpcGHF70vImFawK-26" value="" style="endArrow=classic;html=1;fontFamily=Times New Roman;fontSize=24;fontColor=#33FFFF;exitX=1;exitY=0.5;exitDx=0;exitDy=0;entryX=0;entryY=0.5;entryDx=0;entryDy=0;rounded=1;" parent="1" source="14" target="LLOpAmpcGHF70vImFawK-20" edge="1">
                    <mxGeometry width="50" height="50" relative="1" as="geometry">
                        <mxPoint x="470" y="270" as="sourcePoint"/>
                        <mxPoint x="520" y="220" as="targetPoint"/>
                    </mxGeometry>
                </mxCell>
                <mxCell id="LLOpAmpcGHF70vImFawK-27" value="" style="endArrow=classic;html=1;fontFamily=Times New Roman;fontSize=24;fontColor=#33FFFF;entryX=0;entryY=0.5;entryDx=0;entryDy=0;exitX=1;exitY=0.5;exitDx=0;exitDy=0;rounded=1;" parent="1" source="14" target="LLOpAmpcGHF70vImFawK-23" edge="1">
                    <mxGeometry width="50" height="50" relative="1" as="geometry">
                        <mxPoint x="340" y="210" as="sourcePoint"/>
                        <mxPoint x="510" y="210" as="targetPoint"/>
                    </mxGeometry>
                </mxCell>
                <mxCell id="LLOpAmpcGHF70vImFawK-28" value="" style="endArrow=classic;html=1;fontFamily=Times New Roman;fontSize=24;fontColor=#33FFFF;exitX=1;exitY=0.5;exitDx=0;exitDy=0;entryX=0;entryY=0.5;entryDx=0;entryDy=0;rounded=1;" parent="1" source="14" target="LLOpAmpcGHF70vImFawK-22" edge="1">
                    <mxGeometry width="50" height="50" relative="1" as="geometry">
                        <mxPoint x="470" y="270" as="sourcePoint"/>
                        <mxPoint x="520" y="220" as="targetPoint"/>
                    </mxGeometry>
                </mxCell>
                <mxCell id="LLOpAmpcGHF70vImFawK-29" value="" style="endArrow=classic;html=1;fontFamily=Times New Roman;fontSize=24;fontColor=#33FFFF;exitX=0.75;exitY=1;exitDx=0;exitDy=0;entryX=0;entryY=0.5;entryDx=0;entryDy=0;rounded=1;" parent="1" source="14" target="LLOpAmpcGHF70vImFawK-21" edge="1">
                    <mxGeometry width="50" height="50" relative="1" as="geometry">
                        <mxPoint x="470" y="270" as="sourcePoint"/>
                        <mxPoint x="520" y="220" as="targetPoint"/>
                        <Array as="points">
                            <mxPoint x="420" y="320"/>
                        </Array>
                    </mxGeometry>
                </mxCell>
                <mxCell id="LLOpAmpcGHF70vImFawK-30" value="" style="endArrow=classic;html=1;fontFamily=Times New Roman;fontSize=24;fontColor=#33FFFF;exitX=1;exitY=0.5;exitDx=0;exitDy=0;entryX=0;entryY=0;entryDx=0;entryDy=0;rounded=1;" parent="1" source="11" target="15" edge="1">
                    <mxGeometry width="50" height="50" relative="1" as="geometry">
                        <mxPoint x="470" y="420" as="sourcePoint"/>
                        <mxPoint x="520" y="370" as="targetPoint"/>
                    </mxGeometry>
                </mxCell>
                <mxCell id="LLOpAmpcGHF70vImFawK-38" style="edgeStyle=none;html=1;exitX=0.5;exitY=1;exitDx=0;exitDy=0;entryX=0.5;entryY=0;entryDx=0;entryDy=0;fontFamily=Times New Roman;fontSize=24;fontColor=#0000FF;rounded=1;" parent="1" source="LLOpAmpcGHF70vImFawK-32" target="LLOpAmpcGHF70vImFawK-33" edge="1">
                    <mxGeometry relative="1" as="geometry"/>
                </mxCell>
                <mxCell id="LLOpAmpcGHF70vImFawK-32" value="Đặt vé" style="rounded=1;whiteSpace=wrap;html=1;shadow=1;fontFamily=Times New Roman;fontSize=24;fillColor=#d5e8d4;strokeColor=#82b366;" parent="1" vertex="1">
                    <mxGeometry x="200" y="550" width="120" height="60" as="geometry"/>
                </mxCell>
                <mxCell id="LLOpAmpcGHF70vImFawK-40" style="edgeStyle=none;html=1;exitX=0.5;exitY=1;exitDx=0;exitDy=0;entryX=0.5;entryY=0;entryDx=0;entryDy=0;fontFamily=Times New Roman;fontSize=24;fontColor=#0000FF;rounded=1;" parent="1" source="LLOpAmpcGHF70vImFawK-33" target="LLOpAmpcGHF70vImFawK-39" edge="1">
                    <mxGeometry relative="1" as="geometry"/>
                </mxCell>
                <mxCell id="LLOpAmpcGHF70vImFawK-33" value="Chọn phim" style="rounded=1;whiteSpace=wrap;html=1;shadow=1;fontFamily=Times New Roman;fontSize=24;fillColor=#d5e8d4;strokeColor=#82b366;" parent="1" vertex="1">
                    <mxGeometry x="200" y="670" width="120" height="60" as="geometry"/>
                </mxCell>
                <mxCell id="LLOpAmpcGHF70vImFawK-47" style="edgeStyle=none;html=1;exitX=1;exitY=0.5;exitDx=0;exitDy=0;fontFamily=Times New Roman;fontSize=24;fontColor=#0000FF;entryX=0;entryY=0.5;entryDx=0;entryDy=0;rounded=1;" parent="1" source="LLOpAmpcGHF70vImFawK-39" target="LLOpAmpcGHF70vImFawK-41" edge="1">
                    <mxGeometry relative="1" as="geometry">
                        <mxPoint x="660" y="620" as="targetPoint"/>
                    </mxGeometry>
                </mxCell>
                <mxCell id="LLOpAmpcGHF70vImFawK-48" style="edgeStyle=none;html=1;exitX=1;exitY=0.5;exitDx=0;exitDy=0;entryX=0;entryY=0.5;entryDx=0;entryDy=0;fontFamily=Times New Roman;fontSize=24;fontColor=#0000FF;rounded=1;" parent="1" source="LLOpAmpcGHF70vImFawK-39" target="LLOpAmpcGHF70vImFawK-42" edge="1">
                    <mxGeometry relative="1" as="geometry"/>
                </mxCell>
                <mxCell id="LLOpAmpcGHF70vImFawK-49" style="edgeStyle=none;html=1;exitX=1;exitY=0.5;exitDx=0;exitDy=0;entryX=0;entryY=0.5;entryDx=0;entryDy=0;fontFamily=Times New Roman;fontSize=24;fontColor=#0000FF;rounded=1;" parent="1" source="LLOpAmpcGHF70vImFawK-39" target="LLOpAmpcGHF70vImFawK-43" edge="1">
                    <mxGeometry relative="1" as="geometry"/>
                </mxCell>
                <mxCell id="LLOpAmpcGHF70vImFawK-50" style="edgeStyle=none;html=1;exitX=1;exitY=0.5;exitDx=0;exitDy=0;entryX=0;entryY=0.5;entryDx=0;entryDy=0;fontFamily=Times New Roman;fontSize=24;fontColor=#0000FF;rounded=1;" parent="1" source="LLOpAmpcGHF70vImFawK-39" target="LLOpAmpcGHF70vImFawK-44" edge="1">
                    <mxGeometry relative="1" as="geometry"/>
                </mxCell>
                <mxCell id="LLOpAmpcGHF70vImFawK-39" value="Nhập thông tin" style="rounded=1;whiteSpace=wrap;html=1;shadow=1;fontFamily=Times New Roman;fontSize=24;fillColor=#d5e8d4;strokeColor=#82b366;" parent="1" vertex="1">
                    <mxGeometry x="175" y="800" width="170" height="60" as="geometry"/>
                </mxCell>
                <mxCell id="LLOpAmpcGHF70vImFawK-41" value="Thông tin khách hàng" style="rounded=1;whiteSpace=wrap;html=1;shadow=1;fontFamily=Times New Roman;fontSize=24;fillColor=#d5e8d4;strokeColor=#82b366;" parent="1" vertex="1">
                    <mxGeometry x="425" y="960" width="145" height="60" as="geometry"/>
                </mxCell>
                <mxCell id="LLOpAmpcGHF70vImFawK-42" value="Số lượng vé" style="rounded=1;whiteSpace=wrap;html=1;shadow=1;fontFamily=Times New Roman;fontSize=24;fillColor=#d5e8d4;strokeColor=#82b366;" parent="1" vertex="1">
                    <mxGeometry x="425" y="720" width="120" height="60" as="geometry"/>
                </mxCell>
                <mxCell id="LLOpAmpcGHF70vImFawK-43" value="Suất chiếu" style="rounded=1;whiteSpace=wrap;html=1;shadow=1;fontFamily=Times New Roman;fontSize=24;fillColor=#d5e8d4;strokeColor=#82b366;" parent="1" vertex="1">
                    <mxGeometry x="425" y="800" width="120" height="60" as="geometry"/>
                </mxCell>
                <mxCell id="LLOpAmpcGHF70vImFawK-44" value="Số ghế" style="rounded=1;whiteSpace=wrap;html=1;shadow=1;fontFamily=Times New Roman;fontSize=24;fillColor=#d5e8d4;strokeColor=#82b366;" parent="1" vertex="1">
                    <mxGeometry x="425" y="880" width="120" height="60" as="geometry"/>
                </mxCell>
                <mxCell id="LLOpAmpcGHF70vImFawK-63" style="edgeStyle=none;html=1;exitX=0.5;exitY=1;exitDx=0;exitDy=0;entryX=0.5;entryY=0;entryDx=0;entryDy=0;fontFamily=Times New Roman;fontSize=24;fontColor=#0000FF;rounded=1;" parent="1" source="LLOpAmpcGHF70vImFawK-54" target="LLOpAmpcGHF70vImFawK-58" edge="1">
                    <mxGeometry relative="1" as="geometry"/>
                </mxCell>
                <mxCell id="LLOpAmpcGHF70vImFawK-54" value="Thanh toán" style="rounded=1;whiteSpace=wrap;html=1;shadow=1;fontFamily=Times New Roman;fontSize=24;fillColor=#d5e8d4;strokeColor=#82b366;" parent="1" vertex="1">
                    <mxGeometry x="710" y="530" width="140" height="60" as="geometry"/>
                </mxCell>
                <mxCell id="LLOpAmpcGHF70vImFawK-64" style="edgeStyle=none;html=1;exitX=0;exitY=0.5;exitDx=0;exitDy=0;entryX=1;entryY=0.5;entryDx=0;entryDy=0;fontFamily=Times New Roman;fontSize=24;fontColor=#0000FF;rounded=1;" parent="1" source="LLOpAmpcGHF70vImFawK-58" target="LLOpAmpcGHF70vImFawK-42" edge="1">
                    <mxGeometry relative="1" as="geometry"/>
                </mxCell>
                <mxCell id="LLOpAmpcGHF70vImFawK-66" style="edgeStyle=none;html=1;exitX=0;exitY=0.5;exitDx=0;exitDy=0;entryX=1;entryY=0.5;entryDx=0;entryDy=0;fontFamily=Times New Roman;fontSize=24;fontColor=#0000FF;rounded=1;" parent="1" source="LLOpAmpcGHF70vImFawK-58" target="LLOpAmpcGHF70vImFawK-43" edge="1">
                    <mxGeometry relative="1" as="geometry"/>
                </mxCell>
                <mxCell id="LLOpAmpcGHF70vImFawK-67" style="edgeStyle=none;html=1;exitX=0;exitY=0.5;exitDx=0;exitDy=0;entryX=1;entryY=0.5;entryDx=0;entryDy=0;fontFamily=Times New Roman;fontSize=24;fontColor=#0000FF;rounded=1;" parent="1" source="LLOpAmpcGHF70vImFawK-58" target="LLOpAmpcGHF70vImFawK-44" edge="1">
                    <mxGeometry relative="1" as="geometry"/>
                </mxCell>
                <mxCell id="LLOpAmpcGHF70vImFawK-68" style="edgeStyle=none;html=1;exitX=0;exitY=0.5;exitDx=0;exitDy=0;entryX=1;entryY=0.5;entryDx=0;entryDy=0;fontFamily=Times New Roman;fontSize=24;fontColor=#0000FF;rounded=1;" parent="1" source="LLOpAmpcGHF70vImFawK-58" target="LLOpAmpcGHF70vImFawK-41" edge="1">
                    <mxGeometry relative="1" as="geometry"/>
                </mxCell>
                <mxCell id="LLOpAmpcGHF70vImFawK-70" style="edgeStyle=none;html=1;exitX=0.5;exitY=1;exitDx=0;exitDy=0;entryX=0.5;entryY=0;entryDx=0;entryDy=0;fontFamily=Times New Roman;fontSize=24;fontColor=#0000FF;rounded=1;" parent="1" source="LLOpAmpcGHF70vImFawK-58" target="LLOpAmpcGHF70vImFawK-69" edge="1">
                    <mxGeometry relative="1" as="geometry"/>
                </mxCell>
                <mxCell id="LLOpAmpcGHF70vImFawK-58" value="Hóa đơn" style="rounded=1;whiteSpace=wrap;html=1;shadow=1;fontFamily=Times New Roman;fontSize=24;fillColor=#d5e8d4;strokeColor=#82b366;" parent="1" vertex="1">
                    <mxGeometry x="710" y="680" width="140" height="70" as="geometry"/>
                </mxCell>
                <mxCell id="LLOpAmpcGHF70vImFawK-69" value="Tổng chi phí" style="rounded=1;whiteSpace=wrap;html=1;shadow=1;fontFamily=Times New Roman;fontSize=24;fillColor=#d5e8d4;strokeColor=#82b366;" parent="1" vertex="1">
                    <mxGeometry x="700" y="940" width="160" height="80" as="geometry"/>
                </mxCell>
                <mxCell id="17" value="Đăng nhập&lt;br&gt;" style="text;html=1;align=center;verticalAlign=middle;resizable=0;points=[];autosize=1;strokeColor=none;fillColor=none;fontColor=#000000;rotation=-20;" vertex="1" parent="1">
                    <mxGeometry x="130" y="275" width="80" height="30" as="geometry"/>
                </mxCell>
                <mxCell id="19" value="Đăng nhập&lt;br&gt;" style="text;html=1;align=center;verticalAlign=middle;resizable=0;points=[];autosize=1;strokeColor=none;fillColor=none;fontColor=#000000;rotation=45;" vertex="1" parent="1">
                    <mxGeometry x="115" y="350" width="80" height="30" as="geometry"/>
                </mxCell>
            </root>
        </mxGraphModel>
    </diagram>
</mxfile>